<svg width="119" height="73" viewBox="0 0 119 73" fill="none" xmlns="http://www.w3.org/2000/svg">
<path d="M44.8352 23.3125L37.3693 23.3125C37.233 22.3466 36.9545 21.4886 36.5341 20.7386C36.1136 19.9773 35.5739 19.3295 34.9148 18.7955C34.2557 18.2614 33.4943 17.8523 32.6307 17.5682C31.7784 17.2841 30.8523 17.142 29.8523 17.142C28.0455 17.142 26.4716 17.5909 25.1307 18.4886C23.7898 19.375 22.75 20.6705 22.0114 22.375C21.2727 24.0682 20.9034 26.125 20.9034 28.5455C20.9034 31.0341 21.2727 33.125 22.0114 34.8182C22.7614 36.5114 23.8068 37.7898 25.1477 38.6534C26.4886 39.517 28.0398 39.9489 29.8011 39.9489C30.7898 39.9489 31.7045 39.8182 32.5455 39.5568C33.3977 39.2955 34.1534 38.9148 34.8125 38.4148C35.4716 37.9034 36.017 37.2841 36.4489 36.5568C36.892 35.8295 37.1989 35 37.3693 34.0682L44.8352 34.1023C44.642 35.7045 44.1591 37.25 43.3864 38.7386C42.625 40.2159 41.5966 41.5398 40.3011 42.7102C39.017 43.8693 37.483 44.7898 35.6989 45.4716C33.9261 46.142 31.9205 46.4773 29.6818 46.4773C26.5682 46.4773 23.7841 45.7727 21.3295 44.3636C18.8864 42.9545 16.9545 40.9148 15.5341 38.2443C14.125 35.5739 13.4205 32.3409 13.4205 28.5455C13.4205 24.7386 14.1364 21.5 15.5682 18.8295C17 16.1591 18.9432 14.125 21.3977 12.7273C23.8523 11.3182 26.6136 10.6136 29.6818 10.6136C31.7045 10.6136 33.5795 10.8977 35.3068 11.4659C37.0455 12.0341 38.5852 12.8636 39.9261 13.9545C41.267 15.0341 42.358 16.358 43.1989 17.9261C44.0511 19.4943 44.5966 21.2898 44.8352 23.3125Z" fill="#1BA499"/>
<path d="M33.8352 38.3125H26.3693C26.233 37.3466 25.9545 36.4886 25.5341 35.7386C25.1136 34.9773 24.5739 34.3295 23.9148 33.7955C23.2557 33.2614 22.4943 32.8523 21.6307 32.5682C20.7784 32.2841 19.8523 32.142 18.8523 32.142C17.0455 32.142 15.4716 32.5909 14.1307 33.4886C12.7898 34.375 11.75 35.6705 11.0114 37.375C10.2727 39.0682 9.90341 41.125 9.90341 43.5455C9.90341 46.0341 10.2727 48.125 11.0114 49.8182C11.7614 51.5114 12.8068 52.7898 14.1477 53.6534C15.4886 54.517 17.0398 54.9489 18.8011 54.9489C19.7898 54.9489 20.7045 54.8182 21.5455 54.5568C22.3977 54.2955 23.1534 53.9148 23.8125 53.4148C24.4716 52.9034 25.017 52.2841 25.4489 51.5568C25.892 50.8295 26.1989 50 26.3693 49.0682L33.8352 49.1023C33.642 50.7045 33.1591 52.25 32.3864 53.7386C31.625 55.2159 30.5966 56.5398 29.3011 57.7102C28.017 58.8693 26.483 59.7898 24.6989 60.4716C22.9261 61.142 20.9205 61.4773 18.6818 61.4773C15.5682 61.4773 12.7841 60.7727 10.3295 59.3636C7.88636 57.9545 5.95455 55.9148 4.53409 53.2443C3.125 50.5739 2.42045 47.3409 2.42045 43.5455C2.42045 39.7386 3.13636 36.5 4.56818 33.8295C6 31.1591 7.94318 29.125 10.3977 27.7273C12.8523 26.3182 15.6136 25.6136 18.6818 25.6136C20.7045 25.6136 22.5795 25.8977 24.3068 26.4659C26.0455 27.0341 27.5852 27.8636 28.9261 28.9545C30.267 30.0341 31.358 31.358 32.1989 32.9261C33.0511 34.4943 33.5966 36.2898 33.8352 38.3125Z" fill="#020409"/>
<path d="M50.983 39C50.4843 39 50.1433 38.9047 49.96 38.714C49.7913 38.5527 49.707 38.4133 49.707 38.296V38.065C49.3477 38.7177 48.772 39.044 47.98 39.044C47.056 39.044 46.5317 38.626 46.407 37.79C46.3923 37.702 46.385 37.614 46.385 37.526C46.385 37.4307 46.3997 37.328 46.429 37.218C46.4583 37.108 46.5427 36.987 46.682 36.855C46.9607 36.591 47.573 36.4297 48.519 36.371C48.7537 36.349 48.97 36.338 49.168 36.338C49.366 36.338 49.5457 36.3453 49.707 36.36V34.534C49.6923 34.5267 49.6923 34.4937 49.707 34.435C49.7217 34.369 49.707 34.2883 49.663 34.193C49.6263 34.0903 49.575 33.9913 49.509 33.896C49.443 33.8007 49.3257 33.72 49.157 33.654C48.9883 33.5807 48.7683 33.544 48.497 33.544C48.2257 33.544 47.9067 33.5953 47.54 33.698C47.1807 33.7933 46.9167 33.8887 46.748 33.984L46.704 33.907C47.3567 33.6063 48.0203 33.456 48.695 33.456C49.4503 33.456 49.949 33.5917 50.191 33.863C50.3817 34.0757 50.477 34.2993 50.477 34.534V38.219C50.477 38.4317 50.5173 38.5967 50.598 38.714C50.686 38.824 50.774 38.8827 50.862 38.89L50.983 38.912H51.324V39H50.983ZM48.156 38.956C48.5447 38.956 48.893 38.824 49.201 38.56C49.5163 38.2887 49.685 38.0283 49.707 37.779V36.448C49.509 36.4333 49.3073 36.426 49.102 36.426C48.904 36.426 48.706 36.437 48.508 36.459C47.9507 36.525 47.5877 36.6497 47.419 36.833C47.2503 37.0163 47.166 37.2693 47.166 37.592C47.166 37.6507 47.1697 37.7167 47.177 37.79C47.243 38.5673 47.5693 38.956 48.156 38.956ZM58.5623 34.765C58.5623 34.3177 58.5036 34.0023 58.3863 33.819C58.2689 33.6357 58.0453 33.544 57.7153 33.544C57.2753 33.544 56.8829 33.7273 56.5383 34.094C56.2009 34.4607 56.0323 34.7907 56.0323 35.084V39H55.2623V34.765C55.2623 34.3177 55.2036 34.0023 55.0863 33.819C54.9689 33.6357 54.7196 33.544 54.3383 33.544C53.9569 33.544 53.5939 33.72 53.2493 34.072C52.9119 34.424 52.7286 34.7503 52.6993 35.051V39H51.9293V33.5H52.6993V34.743C52.8166 34.4277 53.0329 34.1343 53.3483 33.863C53.6636 33.5917 54.0156 33.456 54.4043 33.456C54.7929 33.456 55.1009 33.4927 55.3283 33.566C55.5629 33.632 55.7279 33.7383 55.8233 33.885C55.9186 34.0317 55.9773 34.16 55.9993 34.27C56.0213 34.38 56.0323 34.534 56.0323 34.732C56.1496 34.4167 56.3623 34.127 56.6703 33.863C56.9783 33.5917 57.3083 33.456 57.6603 33.456C58.0123 33.456 58.2946 33.4853 58.5073 33.544C58.7199 33.6027 58.8776 33.6687 58.9803 33.742C59.0903 33.8153 59.1709 33.9217 59.2223 34.061C59.2809 34.2003 59.3139 34.314 59.3213 34.402C59.3286 34.49 59.3323 34.6147 59.3323 34.776V38.219C59.3323 38.4317 59.3726 38.5967 59.4533 38.714C59.5413 38.824 59.6293 38.8827 59.7173 38.89L59.8383 38.912H60.1793V39H59.5083C59.2076 39 58.9766 38.934 58.8153 38.802C58.6613 38.67 58.5806 38.538 58.5733 38.406L58.5623 38.219V34.765ZM60.6223 33.5H61.3923V34.864C61.5169 34.5267 61.7479 34.2077 62.0853 33.907C62.4226 33.6063 62.8039 33.456 63.2293 33.456C64.7179 33.456 65.4623 34.3287 65.4623 36.074C65.4623 38.054 64.5016 39.044 62.5803 39.044C62.2356 39.044 61.8396 38.9633 61.3923 38.802V41.75H60.6223V33.5ZM63.2183 33.544C62.7636 33.544 62.3529 33.742 61.9863 34.138C61.6196 34.5267 61.4216 34.8787 61.3923 35.194V38.703C61.8396 38.8717 62.2319 38.956 62.5693 38.956C63.9846 38.956 64.6923 37.9917 64.6923 36.063C64.6923 34.3837 64.2009 33.544 63.2183 33.544ZM67.1153 37.735C67.1153 38.3143 67.2693 38.6847 67.5773 38.846C67.7239 38.9193 67.9109 38.956 68.1383 38.956C68.6003 38.956 69.0109 38.78 69.3703 38.428C69.7369 38.076 69.9349 37.7497 69.9643 37.449V33.5H70.7343V38.219C70.7343 38.4317 70.7746 38.5967 70.8553 38.714C70.9433 38.824 71.0313 38.8827 71.1193 38.89L71.2403 38.912H71.5813V39H70.9103C70.6096 39 70.3786 38.934 70.2173 38.802C70.0633 38.67 69.9826 38.538 69.9753 38.406L69.9643 38.219V37.746C69.8323 38.0613 69.5976 38.3583 69.2603 38.637C68.9229 38.9083 68.5526 39.044 68.1493 39.044C67.7533 39.044 67.4269 39.0073 67.1703 38.934C66.9209 38.8533 66.7413 38.7433 66.6313 38.604C66.4406 38.3767 66.3453 38.0833 66.3453 37.724V33.5H67.1153V37.735ZM75.3473 33.885C75.23 33.7897 75.0393 33.709 74.7753 33.643C74.5186 33.577 74.3243 33.544 74.1923 33.544C74.0603 33.544 73.9833 33.544 73.9613 33.544C73.5653 33.5513 73.2793 33.654 73.1033 33.852C72.9273 34.0427 72.8393 34.259 72.8393 34.501C72.8393 34.743 72.9163 34.9483 73.0703 35.117C73.2243 35.2783 73.415 35.4067 73.6423 35.502C73.877 35.59 74.1263 35.6927 74.3903 35.81C74.6616 35.9273 74.911 36.0483 75.1383 36.173C75.373 36.2903 75.5673 36.4663 75.7213 36.701C75.8753 36.9283 75.9523 37.2143 75.9523 37.559C75.9523 37.9037 75.8313 38.197 75.5893 38.439C75.3473 38.681 75.076 38.8423 74.7753 38.923C74.482 39.0037 74.163 39.044 73.8183 39.044C73.0703 39.044 72.5093 38.879 72.1353 38.549L72.2013 38.483C72.348 38.6223 72.5643 38.736 72.8503 38.824C73.1436 38.912 73.426 38.956 73.6973 38.956C74.13 38.956 74.4856 38.8387 74.7643 38.604C75.0503 38.362 75.1933 38.065 75.1933 37.713C75.1933 37.3537 75.087 37.0677 74.8743 36.855C74.6616 36.635 74.4013 36.4663 74.0933 36.349C73.7926 36.2243 73.4883 36.1033 73.1803 35.986C72.8723 35.8613 72.612 35.6927 72.3993 35.48C72.1866 35.26 72.0803 35.007 72.0803 34.721C72.0803 34.435 72.1463 34.204 72.2783 34.028C72.4103 33.8447 72.5863 33.7163 72.8063 33.643C73.1803 33.5183 73.5543 33.456 73.9283 33.456C74.559 33.456 75.0503 33.5733 75.4023 33.808L75.3473 33.885ZM84.012 39.044C82.6407 39.044 81.625 38.6553 80.965 37.878C80.7304 37.5993 80.5397 37.229 80.393 36.767C80.2464 36.305 80.173 35.744 80.173 35.084C80.173 34.424 80.2794 33.8337 80.492 33.313C80.712 32.785 81.009 32.378 81.383 32.092C82.109 31.5567 82.9854 31.289 84.012 31.289C84.3054 31.289 84.5914 31.3147 84.87 31.366C85.1487 31.41 85.3577 31.4577 85.497 31.509L85.695 31.586L85.662 31.696C85.1634 31.498 84.6134 31.399 84.012 31.399C83.2347 31.399 82.5857 31.652 82.065 32.158C81.669 32.532 81.3904 33.082 81.229 33.808C81.1337 34.2187 81.086 34.721 81.086 35.315C81.086 35.909 81.1704 36.459 81.339 36.965C81.5077 37.4637 81.6984 37.834 81.911 38.076C82.131 38.318 82.395 38.5123 82.703 38.659C83.011 38.7983 83.2567 38.879 83.44 38.901C83.6234 38.923 83.8434 38.934 84.1 38.934C84.364 38.934 84.661 38.9083 84.991 38.857C85.321 38.8057 85.5704 38.758 85.739 38.714L85.992 38.637L86.025 38.747C85.4677 38.945 84.7967 39.044 84.012 39.044ZM89.2443 39.044C88.4743 39.044 87.8473 38.824 87.3633 38.384C86.8793 37.944 86.6373 37.2657 86.6373 36.349C86.6373 35.4323 86.8866 34.721 87.3853 34.215C87.8913 33.709 88.5293 33.456 89.2993 33.456C90.0766 33.456 90.7073 33.676 91.1913 34.116C91.6753 34.556 91.9173 35.2343 91.9173 36.151C91.9173 37.0677 91.6643 37.779 91.1583 38.285C90.6596 38.791 90.0216 39.044 89.2443 39.044ZM89.3213 33.544C88.7639 33.544 88.3019 33.7933 87.9353 34.292C87.5686 34.7833 87.3853 35.4727 87.3853 36.36C87.3853 37.24 87.5539 37.8927 87.8913 38.318C88.2286 38.7433 88.6759 38.956 89.2333 38.956C89.7906 38.956 90.2526 38.7103 90.6193 38.219C90.9859 37.7203 91.1693 37.031 91.1693 36.151C91.1693 35.2637 91.0006 34.6073 90.6633 34.182C90.3259 33.7567 89.8786 33.544 89.3213 33.544ZM97.1427 39C96.842 39 96.611 38.934 96.4497 38.802C96.2957 38.67 96.215 38.538 96.2077 38.406L96.1967 38.219V34.765C96.1967 34.1857 96.0464 33.8153 95.7457 33.654C95.5917 33.5807 95.401 33.544 95.1737 33.544C94.7044 33.544 94.2827 33.731 93.9087 34.105C93.5347 34.4717 93.3477 34.8017 93.3477 35.095V39H92.5777V33.5H93.3477V34.754C93.4724 34.4387 93.7034 34.1453 94.0407 33.874C94.378 33.5953 94.7484 33.456 95.1517 33.456C95.555 33.456 95.8814 33.4963 96.1307 33.577C96.3874 33.6503 96.5744 33.7567 96.6917 33.896C96.875 34.1233 96.9667 34.4167 96.9667 34.776V38.219C96.9667 38.4317 97.007 38.5967 97.0877 38.714C97.1757 38.824 97.2637 38.8827 97.3517 38.89L97.4727 38.912H97.8137V39H97.1427ZM102.933 39C102.632 39 102.401 38.934 102.24 38.802C102.086 38.67 102.005 38.538 101.998 38.406L101.987 38.219V34.765C101.987 34.1857 101.836 33.8153 101.536 33.654C101.382 33.5807 101.191 33.544 100.964 33.544C100.494 33.544 100.073 33.731 99.6987 34.105C99.3247 34.4717 99.1377 34.8017 99.1377 35.095V39H98.3677V33.5H99.1377V34.754C99.2624 34.4387 99.4934 34.1453 99.8307 33.874C100.168 33.5953 100.538 33.456 100.942 33.456C101.345 33.456 101.671 33.4963 101.921 33.577C102.177 33.6503 102.364 33.7567 102.482 33.896C102.665 34.1233 102.757 34.4167 102.757 34.776V38.219C102.757 38.4317 102.797 38.5967 102.878 38.714C102.966 38.824 103.054 38.8827 103.142 38.89L103.263 38.912H103.604V39H102.933ZM104.798 36.316C104.798 37.2253 104.956 37.8927 105.271 38.318C105.594 38.7433 106.016 38.956 106.536 38.956C107.27 38.956 107.922 38.846 108.494 38.626L108.527 38.703C107.941 38.9303 107.277 39.044 106.536 39.044C105.803 39.044 105.205 38.824 104.743 38.384C104.281 37.944 104.05 37.2657 104.05 36.349C104.05 35.4323 104.292 34.721 104.776 34.215C105.26 33.709 105.876 33.456 106.624 33.456C107.226 33.456 107.732 33.6357 108.142 33.995C108.553 34.3543 108.758 34.886 108.758 35.59C108.758 35.6267 108.758 35.6633 108.758 35.7H104.831C104.809 35.898 104.798 36.1033 104.798 36.316ZM108.01 35.612C108.003 34.908 107.867 34.3873 107.603 34.05C107.339 33.7127 106.998 33.544 106.58 33.544C106.162 33.544 105.788 33.7273 105.458 34.094C105.136 34.4607 104.93 34.9667 104.842 35.612H108.01ZM112.114 33.544C111.593 33.544 111.157 33.7933 110.805 34.292C110.46 34.7907 110.288 35.48 110.288 36.36C110.288 37.24 110.445 37.8927 110.761 38.318C111.083 38.7433 111.505 38.956 112.026 38.956C112.678 38.956 113.258 38.846 113.764 38.626L113.797 38.703C113.276 38.9303 112.667 39.044 111.971 39.044C111.274 39.044 110.695 38.824 110.233 38.384C109.771 37.944 109.54 37.2657 109.54 36.349C109.54 35.4323 109.782 34.721 110.266 34.215C110.75 33.709 111.366 33.456 112.114 33.456C112.532 33.456 112.917 33.5513 113.269 33.742C113.628 33.9327 113.892 34.2223 114.061 34.611H113.357C113.247 34.2517 113.078 33.984 112.851 33.808C112.631 33.632 112.385 33.544 112.114 33.544ZM114.781 33.588V33.5H115.012V32.4H115.782V33.5H117.465V33.588H115.782V37.592C115.782 38.0687 115.833 38.4133 115.936 38.626C116.046 38.8387 116.269 38.945 116.607 38.945C116.951 38.945 117.3 38.8753 117.652 38.736L117.685 38.824C117.318 38.9633 116.896 39.033 116.42 39.033C115.95 39.033 115.598 38.9377 115.364 38.747C115.129 38.549 115.012 38.1603 115.012 37.581V33.588H114.781Z" fill="#1E1E1E"/>
</svg>
